<svg xmlns="http://www.w3.org/2000/svg" xmlns:xlink="http://www.w3.org/1999/xlink" width="120" height="120" viewBox="0 0 120 120">
    <defs>
        <path id="prefix__a" d="M0 120L120 120 120 0 0 0z"/>
    </defs>
    <g fill="none" fill-rule="evenodd">
        <path fill="#052CB9" d="M91.8 20.795c.977 0 1.768.791 1.768 1.769v72.46c0 3.136 2.136 5.782 5.03 6.562v-65.75a1.767 1.767 0 113.536 0v65.75c2.893-.78 5.029-3.426 5.029-6.563V51.17a1.769 1.769 0 113.537 0v43.854c0 5.698-4.635 10.334-10.334 10.334H29.068c-5.699 0-10.334-4.636-10.334-10.334v-72.46c0-.977.792-1.768 1.769-1.768H91.8zm-1.77 3.537H22.272v70.691a6.804 6.804 0 006.797 6.797h63.52l-.033-.037-.135-.159.167.196a10.438 10.438 0 01-.596-.749l-.051-.07a9.296 9.296 0 01-.14-.203l-.032-.046a10.274 10.274 0 01-1.52-3.62l-.015-.075a8.353 8.353 0 01-.044-.23l-.017-.101a9.067 9.067 0 01-.084-.616l-.01-.096a8.768 8.768 0 01-.021-.266l-.003-.041a8.86 8.86 0 01-.015-.274l-.002-.085a9.313 9.313 0 01-.006-.325v-70.69zm-8.528 67.971a1.768 1.768 0 110 3.538H30.8a1.768 1.768 0 110-3.538h50.702zm0-12.397a1.768 1.768 0 110 3.537H30.8a1.768 1.768 0 110-3.538h50.702zm0-12.4a1.768 1.768 0 110 3.538H68.594a1.768 1.768 0 110-3.537h12.908zm-26.021-24.68c.976 0 1.768.792 1.768 1.769v24.68c0 .978-.792 1.77-1.768 1.77H30.8c-.977 0-1.769-.792-1.769-1.77v-24.68c0-.977.792-1.769 1.768-1.769h24.68zm-1.77 3.538H32.57v21.143h21.142V46.364zm27.791 8.744a1.768 1.768 0 110 3.537H68.594a1.768 1.768 0 110-3.537h12.908zm0-12.398a1.768 1.768 0 110 3.538H68.594a1.768 1.768 0 110-3.538h12.908zm0-12.399a1.768 1.768 0 110 3.538H30.8a1.768 1.768 0 110-3.538h50.702z"/>
    </g>
</svg>
