<svg xmlns="http://www.w3.org/2000/svg" width="125" height="106" viewBox="0 0 125 106">
    <g fill="none" fill-rule="evenodd">
        <path fill="#08BE50" d="M91.63 28.147a6.2 6.2 0 016.193 6.195v6.843h6.844a6.202 6.202 0 016.195 6.195v38.28a6.202 6.202 0 01-6.195 6.194H38.392c-3.427 0-6.215-2.779-6.215-6.194v-6.845h-6.845a6.2 6.2 0 01-6.194-6.193v-38.28a6.201 6.201 0 016.194-6.195H91.63zm15.563 27.325H35.846V85.66c0 1.392 1.141 2.525 2.546 2.525h66.275a2.528 2.528 0 002.526-2.525V55.472zM56.748 67.339c4.16 0 7.544 3.384 7.544 7.544 0 4.161-3.383 7.545-7.544 7.545a7.457 7.457 0 01-3.794-1.042 7.454 7.454 0 01-3.793 1.042c-4.16 0-7.545-3.384-7.545-7.545 0-4.16 3.385-7.544 7.545-7.544 1.337 0 2.644.363 3.793 1.042a7.457 7.457 0 013.794-1.042zm0 3.668c-1.198 0-2.059.545-2.57 1.004a1.837 1.837 0 01-2.448 0c-.51-.459-1.37-1.004-2.569-1.004a3.88 3.88 0 00-3.876 3.876 3.88 3.88 0 003.876 3.876c1.198 0 2.058-.544 2.569-1.003a1.837 1.837 0 012.448 0c.511.46 1.372 1.003 2.57 1.003a3.88 3.88 0 003.875-3.876 3.88 3.88 0 00-3.875-3.876zm40.455 2.041a1.834 1.834 0 110 3.67h-24.55a1.835 1.835 0 110-3.67h24.55zm-5.574-41.232H25.332a2.53 2.53 0 00-2.525 2.526v38.28a2.527 2.527 0 002.525 2.524h6.844V47.38a6.142 6.142 0 011.018-3.395 6.22 6.22 0 015.198-2.8h55.763v-6.843a2.53 2.53 0 00-2.526-2.526zm13.038 13.038H38.392c-.168 0-.333.016-.492.047l-.158.036a2.555 2.555 0 00-1.647 1.353l-.064.144c-.12.293-.185.612-.185.946v4.423h71.347V47.38a2.53 2.53 0 00-2.526-2.526z"/>
    </g>
</svg>
