<svg xmlns="http://www.w3.org/2000/svg" width="82" height="85" viewBox="0 0 82 85">
    <g fill="none" fill-rule="evenodd">
        <path fill="#CA005D" d="M81.088 57.754c10.793 0 19.574 8.78 19.574 19.574V94.48c0 1.013-.82 1.833-1.835 1.833H21.173a1.834 1.834 0 01-1.835-1.833V77.328c0-10.794 8.781-19.574 19.575-19.574h42.175zm0 3.669H38.913c-8.771 0-15.906 7.135-15.906 15.905v15.317h73.986V77.328c0-8.77-7.136-15.905-15.905-15.905zm-21.09-49.31c11.4 0 20.674 9.274 20.674 20.673 0 11.4-9.274 20.674-20.673 20.674-11.4 0-20.674-9.275-20.674-20.674S48.6 12.113 60 12.113zm0 3.669c-9.376 0-17.004 7.628-17.004 17.004 0 9.377 7.628 17.005 17.005 17.005 9.376 0 17.004-7.628 17.004-17.005 0-9.376-7.628-17.004-17.004-17.004z" transform="translate(-19 -12)"/>
    </g>
</svg>
