<svg xmlns="http://www.w3.org/2000/svg" width="96" height="106" viewBox="0 0 96 106">
    <g fill="none" fill-rule="evenodd">
        <path fill="#FFC101" d="M25.844 74.428c5.852 0 10.614 4.76 10.614 10.614 0 2.746-1.078 5.358-2.929 7.307a13.47 13.47 0 015.857 11.149v4.362a1.834 1.834 0 11-3.67 0v-4.362a9.833 9.833 0 00-6.18-9.153 1.837 1.837 0 01-1.145-1.57c-.048-.701.306-1.368.914-1.719a6.97 6.97 0 003.484-6.014 6.952 6.952 0 00-6.945-6.946c-3.829 0-6.944 3.115-6.944 6.946a6.97 6.97 0 003.485 6.014c.606.351.962 1.018.913 1.718a1.836 1.836 0 01-1.145 1.57 9.833 9.833 0 00-6.18 9.154v4.362a1.833 1.833 0 11-3.67 0v-4.362a13.47 13.47 0 015.857-11.149 10.634 10.634 0 01-2.929-7.307c0-5.853 4.76-10.614 10.613-10.614zm34.156 0c5.852 0 10.614 4.76 10.614 10.614 0 2.746-1.078 5.358-2.928 7.307a13.472 13.472 0 015.854 11.149v4.362a1.834 1.834 0 11-3.669 0v-4.362a9.828 9.828 0 00-6.18-9.15 1.842 1.842 0 01-1.145-1.576 1.837 1.837 0 01.913-1.716 6.97 6.97 0 003.486-6.014A6.953 6.953 0 0060 78.096a6.953 6.953 0 00-6.946 6.946 6.971 6.971 0 003.487 6.014c.606.351.962 1.018.913 1.716-.05.7-.494 1.311-1.144 1.575a9.827 9.827 0 00-6.181 9.15v4.363a1.834 1.834 0 11-3.669 0v-4.362c0-4.538 2.227-8.66 5.854-11.149a10.634 10.634 0 01-2.928-7.307c0-5.853 4.76-10.614 10.614-10.614zm34.156 0c5.853 0 10.613 4.76 10.613 10.614 0 2.746-1.078 5.358-2.929 7.307a13.469 13.469 0 015.856 11.149v4.362a1.834 1.834 0 11-3.669 0v-4.362a9.834 9.834 0 00-6.18-9.153 1.837 1.837 0 01-1.145-1.57c-.049-.701.306-1.368.914-1.719a6.969 6.969 0 003.484-6.014c0-3.83-3.115-6.946-6.944-6.946a6.953 6.953 0 00-6.946 6.946 6.97 6.97 0 003.485 6.014c.607.351.962 1.018.914 1.718a1.836 1.836 0 01-1.145 1.57 9.832 9.832 0 00-6.18 9.154v4.362a1.834 1.834 0 11-3.67 0v-4.362c0-4.538 2.227-8.66 5.857-11.149a10.631 10.631 0 01-2.929-7.307c0-5.853 4.762-10.614 10.614-10.614zM60 37.249c1.014 0 1.835.82 1.835 1.834V50.88h32.321c1.014 0 1.835.82 1.835 1.834V68.02a1.834 1.834 0 11-3.67 0V54.547H61.835v13.472c0 1.015-.82 1.835-1.835 1.835a1.834 1.834 0 01-1.835-1.835V54.547H27.678V68.02a1.834 1.834 0 11-3.669 0V52.713c0-1.014.82-1.834 1.835-1.834h32.32l.001-11.796c0-1.014.821-1.834 1.835-1.834zm0-32.416c5.852 0 10.614 4.761 10.614 10.614 0 2.746-1.078 5.358-2.928 7.308a13.47 13.47 0 015.854 11.148v4.362a1.833 1.833 0 11-3.669 0v-4.362a9.828 9.828 0 00-6.18-9.151 1.84 1.84 0 01-1.145-1.575 1.837 1.837 0 01.913-1.716 6.969 6.969 0 003.486-6.014A6.953 6.953 0 0060 8.501a6.953 6.953 0 00-6.946 6.946 6.97 6.97 0 003.487 6.014c.606.351.962 1.018.913 1.716a1.84 1.84 0 01-1.144 1.575 9.828 9.828 0 00-6.181 9.15v4.363a1.833 1.833 0 11-3.669 0v-4.362a13.47 13.47 0 015.854-11.148 10.635 10.635 0 01-2.928-7.308c0-5.853 4.76-10.614 10.614-10.614z" transform="translate(-12 -4)"/>
    </g>
</svg>
