<svg width="340" height="340" xmlns="http://www.w3.org/2000/svg">

 <g>
  <title>background</title>
  <rect fill="none" id="canvas_background" height="342" width="342" y="-1" x="-1"/>
 </g>
 <g>
  <title>Layer 1</title>
  <path stroke="null" id="svg_1" d="m37.99219,42.74609c-7.07031,0 -12.82422,5.75782 -12.82422,12.82813l0,236.67969c0,7.0664 5.75391,12.82422 12.82422,12.82422l164.26953,0c7.07031,0 12.82812,-5.75782 12.82812,-12.82422l0,-1.71485c47.10547,26.06641 105.74219,-8.14062 105.74219,-62.52734c0,-39.34766 -32.01172,-71.36328 -71.37109,-71.36328c-12.45703,0 -24.17188,3.20312 -34.3711,8.84765l0,-109.92187c0,-7.07031 -5.75781,-12.82813 -12.82812,-12.82813l-164.26953,0zm161.70703,246.94141l-159.14063,0l0,-231.55078l159.14063,0l0,118.77734c-13.32031,12.96094 -21.60156,31.07813 -21.60156,51.09766s8.28125,38.13672 21.60156,51.09766l0,10.57812zm49.76172,-117.64844c30.86328,0 55.98047,25.10938 55.98047,55.97266c0,46.63672 -53.89063,72.61328 -90.35157,44.15234c-42.30859,-32.98828 -18.1875,-100.125 34.3711,-100.125zm0,0"/>
  <path id="svg_2" d="m158.80078,84.15234l26.9961,0c4.25,0 7.69531,-3.44531 7.69531,-7.69531s-3.44531,-7.69531 -7.69531,-7.69531l-26.9961,0c-4.25,0 -7.69531,3.44531 -7.69531,7.69531s3.44531,7.69531 7.69531,7.69531zm0,0"/>
  <path id="svg_3" d="m158.80078,116.46875l26.9961,0c4.25,0 7.69531,-3.44531 7.69531,-7.69531s-3.44531,-7.69531 -7.69531,-7.69531l-26.9961,0c-4.25,0 -7.69531,3.44531 -7.69531,7.69531s3.44531,7.69531 7.69531,7.69531zm0,0"/>
  <path id="svg_4" d="m158.80078,148.78516l26.9961,0c4.25,0 7.69531,-3.44532 7.69531,-7.69532s-3.44531,-7.69531 -7.69531,-7.69531l-26.9961,0c-4.25,0 -7.69531,3.44531 -7.69531,7.69531s3.44531,7.69532 7.69531,7.69532zm0,0"/>
  <path id="svg_5" d="m63.78516,151.16016l66.54297,0c8.30078,0 15.05078,-6.75 15.05078,-15.0625l0,-54.64844c0,-8.30859 -6.75,-15.0625 -15.05078,-15.0625l-66.54297,0c-8.30078,0 -15.0625,6.75391 -15.0625,15.0625l0,54.64844c0,8.3125 6.76172,15.0625 15.0625,15.0625zm20.85937,-15.39063c3.78906,-5.77344 7.50781,-9.23828 9.42188,-10.80469c1.92578,0.26172 3.91015,0.28516 5.97656,0c1.91797,1.57032 5.63281,5.03516 9.41797,10.80469l-24.81641,0zm45.34375,-53.99219l0,53.99219l-2.85547,0c-4.19531,-8.58984 -8.99218,-14.64453 -12.87109,-18.625c3.30078,-3.91015 5.29297,-8.96484 5.29297,-14.47656c0,-9.46875 -5.8711,-17.57422 -14.16016,-20.89063l24.59375,0zm-32.9375,13.78125c3.92188,0 7.11328,3.17969 7.11328,7.10938c0,3.92187 -3.1914,7.11328 -7.11328,7.11328c-3.91797,0 -7.10937,-3.19141 -7.10937,-7.11328c0,-3.92969 3.1914,-7.10938 7.10937,-7.10938zm-32.93359,-13.78125l24.59375,0c-8.29297,3.31641 -14.16016,11.42188 -14.16016,20.89063c0,5.50781 1.98828,10.57422 5.28906,14.48437c-3.8789,3.98047 -8.67187,10.03125 -12.86328,18.61719l-2.85937,0l0,-53.99219zm0,0"/>
  <path id="svg_6" d="m185.79688,161.88281l-129.3711,0c-4.2539,0 -7.69531,3.44141 -7.69531,7.69532c0,4.25 3.44141,7.69531 7.69531,7.69531l129.3711,0c4.25,0 7.69531,-3.44531 7.69531,-7.69531c0,-4.25391 -3.44531,-7.69532 -7.69531,-7.69532zm0,0"/>
  <path id="svg_7" d="m168.44141,190.36719l-112.01563,0c-4.2539,0 -7.69531,3.44531 -7.69531,7.69531c0,4.25391 3.44141,7.69531 7.69531,7.69531l112.01563,0c4.25,0 7.69531,-3.4414 7.69531,-7.69531c0,-4.25 -3.44531,-7.69531 -7.69531,-7.69531zm0,0"/>
  <path stroke="null" id="svg_8" d="m126.66406,247.33984l-70.23828,0c-4.2539,0 -7.69531,3.44532 -7.69531,7.69532c0,4.2539 3.44141,7.69531 7.69531,7.69531l70.23828,0c4.25391,0 7.69532,-3.44141 7.69532,-7.69531c0,-4.25 -3.44532,-7.69532 -7.69532,-7.69532zm0,0"/>
  <path stroke="null" id="svg_9" d="m218.40625,235.71094l47.05859,0l-7.9414,10.98437c-2.49219,3.44141 -1.71875,8.25391 1.73047,10.7461c3.44531,2.48828 8.2539,1.71484 10.74218,-1.73047c24.3711,-33.71094 24.14454,-21.99219 0,-55.39453c-2.49218,-3.44532 -7.30078,-4.21875 -10.74218,-1.72657c-3.44532,2.48829 -4.21875,7.30079 -1.73047,10.74219l7.9414,10.98828l-47.05859,0c-4.25,0 -7.69531,3.44532 -7.69531,7.69532s3.44531,7.69531 7.69531,7.69531zm0,0"/>
 </g>
</svg>