<?xml version="1.0" standalone="no"?>
<!DOCTYPE svg PUBLIC "-//W3C//DTD SVG 20010904//EN"
 "http://www.w3.org/TR/2001/REC-SVG-20010904/DTD/svg10.dtd">
<svg version="1.0" xmlns="http://www.w3.org/2000/svg"
 width="260.000000pt" height="260.000000pt" viewBox="0 0 260.000000 260.000000"
 preserveAspectRatio="xMidYMid meet">
<metadata>
Created by potrace 1.11, written by Peter Selinger 2001-2013
</metadata>
<g transform="translate(0.000000,260.000000) scale(0.100000,-0.100000)"
fill="#000000" stroke="none">
<path d="M450 2412 c-117 -14 -220 -102 -250 -212 -9 -34 -12 -283 -12 -1000
1 -525 1 -969 1 -985 l1 -30 988 0 c799 1 995 4 1027 14 93 32 171 112 195
201 9 33 12 283 12 965 -1 506 -1 949 -1 985 l-1 65 -967 0 c-533 0 -979 -1
-993 -3z m1440 -435 c4 -169 0 -1161 -4 -1165 -3 -2 -38 -11 -78 -18 -40 -7
-86 -15 -103 -18 -16 -3 -70 -13 -120 -21 -49 -9 -126 -23 -170 -31 -44 -8
-114 -21 -155 -29 -41 -8 -91 -17 -110 -20 -19 -3 -46 -7 -60 -10 -41 -8 -94
-17 -115 -21 -11 -1 -73 -12 -138 -24 -65 -12 -120 -20 -123 -17 -4 3 -7 1028
-4 1163 0 19 11 23 103 39 138 24 136 23 155 29 9 3 40 8 67 12 28 3 52 8 55
9 3 2 24 6 46 9 41 6 51 8 139 25 28 6 67 13 89 16 21 3 41 7 45 9 3 2 31 7
61 11 30 4 57 8 60 10 3 2 26 6 50 10 25 3 63 10 85 15 22 5 61 12 87 15 26 4
59 10 74 14 51 13 64 11 64 -12z"/>
</g>
</svg>
